<svg xmlns="http://www.w3.org/2000/svg" xmlns:xlink="http://www.w3.org/1999/xlink" viewBox="0,0,256,256" width="48px" height="48px"><g fill="none" fill-rule="evenodd" stroke="none" stroke-width="1" stroke-linecap="butt" stroke-linejoin="miter" stroke-miterlimit="10" stroke-dasharray="" stroke-dashoffset="0" font-family="none" font-weight="none" font-size="none" text-anchor="none" style="mix-blend-mode: normal"><g transform="scale(5.33333,5.33333)"><path d="M24.039,7l-24.039,3l4.021,7l0.726,11.905c0.051,1.04 0.166,2.105 0.455,3.108c0.33,1.144 0.937,2.231 1.874,2.983c0.906,0.727 2.015,1.185 3.08,1.624c0,0 2.764,1.035 3.957,1.43c3.263,1.082 6.589,1.984 9.887,2.95l0.02,-0.006l0.019,0.006c3.298,-0.966 6.624,-1.868 9.886,-2.949c1.193,-0.395 3.957,-1.43 3.957,-1.43c1.065,-0.439 2.174,-0.898 3.08,-1.624c0.938,-0.753 1.545,-1.84 1.874,-2.983c0.289,-1.003 0.404,-2.068 0.455,-3.108l0.727,-11.906l4.021,-7z" fill="#000000"></path><path d="M24.039,7l-0.039,0.005v33.984l0.039,0.011c3.298,-0.966 6.624,-1.868 9.886,-2.949c1.193,-0.395 3.957,-1.43 3.957,-1.43c1.065,-0.439 2.174,-0.898 3.08,-1.624c0.938,-0.753 1.545,-1.84 1.874,-2.983c0.289,-1.003 0.404,-2.068 0.455,-3.108l0.727,-11.906l4.021,-7z" fill-opacity="0" fill="#000000"></path><path d="M24.039,7l-0.039,33.989l0.039,0.011c3.298,-0.966 6.624,-1.868 9.886,-2.949c1.193,-0.395 3.957,-1.43 3.957,-1.43c1.065,-0.439 2.174,-0.898 3.08,-1.624c0.938,-0.753 1.545,-1.84 1.874,-2.983c0.289,-1.003 0.404,-2.068 0.455,-3.108l0.727,-11.906l4.021,-7z" fill="#000000"></path><path d="M33,12h11l-2,4h-9z" fill="#000000"></path><path d="M41.43,24h-17.43v4h17.146zM24,32v6c0,0 7.212,-1.791 14.128,-3.855c1.486,-0.444 2.195,-1.114 2.556,-2.145zM6,16l-2,-4h20v4zM6.618,24h17.382v-4h-17.691z" fill="#ffffff"></path><path d="M24,18h9v6h-9zM33,18h8.858l0.142,-2h-9zM15,24h9v6h-9zM9.951,34.145c1.707,0.51 3.426,1.002 5.049,1.455v-5.6h-7.948c0.139,2.267 0.615,3.463 2.899,4.145z" fill="#000000"></path><path d="M41.858,18h-8.858v6h8.43zM24,12h9v6h-9zM7.011,29.094c0.01,0.322 0.024,0.619 0.041,0.906h7.948v-6h-8.382zM15,30v5.6c4.952,1.384 9,2.4 9,2.4v-8z" fill="#000000"></path><path d="M33,14v2h9l1,-2z" fill="#ffffff"></path><path d="M6.309,20h17.691v-4h-18z" fill="#000000"></path><path d="M24,20h9v2h-9z" fill="#ffffff"></path><path d="M24,28v4h16.684c0.264,-0.753 0.347,-1.693 0.384,-2.906l0.078,-1.094z" fill="#000000"></path><path d="M15,26h9v2h-9zM9.562,34h5.438v-2h-7.605c0.326,0.929 0.958,1.561 2.167,2z" fill="#ffffff"></path></g></g></svg>