<svg width="110" height="98" viewBox="0 0 110 98" fill="none" xmlns="http://www.w3.org/2000/svg">
    <path fill-rule="evenodd" clip-rule="evenodd" d="M46.0297 86.6965C48.0866 84.9999 50.2029 83.0225 52.3407 80.7921C49.341 77.3906 46.3495 73.5584 43.4541 69.3678C38.4836 68.9747 33.7615 68.3301 29.3876 67.4716C28.5165 70.4597 27.8564 73.301 27.4126 75.948C26.5823 80.9006 26.5467 84.9545 27.1506 87.9362C27.756 90.9253 28.8849 92.3561 29.9843 92.9908C31.0837 93.6256 32.8873 93.8878 35.7786 92.9176C38.6628 91.9497 42.1558 89.8919 46.0297 86.6965ZM30.5968 63.6316C33.751 64.2367 37.1036 64.7296 40.6146 65.0927C39.451 63.2704 38.3087 61.3912 37.1939 59.4602C36.1736 57.6929 35.2023 55.9274 34.281 54.1696C32.855 57.4161 31.6252 60.585 30.5968 63.6316ZM45.672 65.5173C48.6554 65.7111 51.732 65.8128 54.88 65.8128C58.1835 65.8128 61.4084 65.7008 64.5295 65.4879C66.3015 62.8569 68.0373 60.0811 69.7137 57.1774C71.1907 54.6192 72.5587 52.0708 73.8156 49.5515C72.4301 46.7188 70.9028 43.8457 69.2369 40.9602C67.6615 38.2316 66.0336 35.6158 64.3726 33.127C61.3004 32.921 58.1282 32.8128 54.88 32.8128C51.7876 32.8128 48.7641 32.9109 45.8302 33.098C44.2277 35.5107 42.6568 38.0414 41.1349 40.6774C39.413 43.6599 37.8391 46.6292 36.4169 49.5543C37.7118 52.1647 39.1263 54.8072 40.658 57.4602C42.2807 60.2708 43.959 62.9617 45.672 65.5173ZM48.5773 69.679C50.6454 69.7674 52.7485 69.8128 54.88 69.8128C57.1556 69.8128 59.3988 69.761 61.6017 69.6605C59.4422 72.6137 57.249 75.3461 55.0617 77.8287C52.8917 75.3474 50.7173 72.6214 48.5773 69.679ZM66.7464 69.3323C63.8207 73.5469 60.7988 77.3953 57.7712 80.8027C59.9975 83.1448 62.2019 85.2141 64.3421 86.9795C68.2161 90.1749 71.7091 92.2327 74.5933 93.2006C77.4846 94.1708 79.2881 93.9086 80.3876 93.2738C81.487 92.6391 82.6159 91.2083 83.2213 88.2192C83.8251 85.2375 83.7896 81.1836 82.9592 76.2309C82.4966 73.4713 81.7988 70.5005 80.8719 67.3723C76.4873 68.2547 71.7447 68.9207 66.7464 69.3323ZM84.7861 66.5044C89.1395 81.3573 88.6252 93.1366 82.3876 96.7379C76.1586 100.334 65.7208 94.9102 55.0501 83.7454C44.4742 94.7186 34.1604 100.021 27.9843 96.4549C21.803 92.8861 21.2421 81.2865 25.4688 66.6234C10.1583 62.9861 0 56.5926 0 49.3128C0 42.0826 10.0201 35.7267 25.156 32.077C20.7517 17.1484 21.2471 5.29685 27.5073 1.68254C33.7766 -1.93703 44.3095 3.58099 55.0522 14.8928C65.8871 3.39054 76.543 -2.24963 82.8643 1.39996C89.1807 5.04671 89.6283 17.0791 85.0959 32.197C99.9566 35.8651 109.76 42.1613 109.76 49.3128C109.76 56.5138 99.8202 62.8477 84.7861 66.5044ZM83.8675 36.0143C86.9257 36.7591 89.747 37.6156 92.2863 38.5642C96.9906 40.3214 100.519 42.3176 102.799 44.3314C105.085 46.3502 105.76 48.0433 105.76 49.3128C105.76 50.5823 105.085 52.2753 102.799 54.2941C100.519 56.308 96.9906 58.3041 92.2863 60.0613C89.6677 61.0395 86.7492 61.9198 83.5803 62.6807C82.1623 58.4739 80.3835 54.0683 78.2615 49.5692C80.4993 44.9216 82.3744 40.3649 83.8675 36.0143ZM81.1835 31.3164C82.1931 27.9858 82.9463 24.8281 83.436 21.9069C84.2663 16.9543 84.3019 12.9004 83.698 9.91868C83.0926 6.92962 81.9637 5.49882 80.8643 4.86406C79.7649 4.22931 77.9613 3.96706 75.07 4.93732C72.1859 5.90518 68.6929 7.96295 64.8189 11.1583C62.521 13.0538 60.149 15.2997 57.7555 17.8574C60.7421 21.2636 63.7187 25.0954 66.5983 29.2811C71.7698 29.7013 76.6693 30.3938 81.1835 31.3164ZM69.4298 33.5626C73.125 33.9531 76.6426 34.4874 79.9358 35.1451C78.833 38.3133 77.5165 41.607 75.9918 44.9769C74.9593 42.9795 73.8619 40.971 72.701 38.9602C71.634 37.1121 70.5418 35.3114 69.4298 33.5626ZM61.4757 28.9593C59.3604 26.038 57.2105 23.3278 55.0635 20.8561C52.9333 23.3263 50.8015 26.0302 48.705 28.9411C50.732 28.8563 52.7924 28.8128 54.88 28.8128C57.1122 28.8128 59.3133 28.8626 61.4757 28.9593ZM43.6035 29.246C46.4537 25.0837 49.4008 21.2676 52.3603 17.8676C50.0536 15.4226 47.7688 13.2689 45.5527 11.441C41.6788 8.24557 38.1858 6.18779 35.3016 5.21991C32.4103 4.24965 30.6067 4.51189 29.5073 5.14664C28.4079 5.7814 27.279 7.21219 26.6736 10.2013C26.0697 13.183 26.1053 17.2369 26.9356 22.1895C27.4066 24.9985 28.1211 28.0263 29.073 31.2162C33.5784 30.3178 38.4587 29.6473 43.6035 29.246ZM40.793 33.5145C37.1086 33.8904 33.5974 34.409 30.3053 35.0503C31.4018 38.2398 32.7166 41.5593 34.2439 44.958C35.3159 42.8737 36.4587 40.7768 37.6708 38.6774C38.6901 36.9119 39.7324 35.1896 40.793 33.5145ZM26.3687 35.8997C27.8538 40.2828 29.7295 44.8799 31.9759 49.5721C29.8468 54.1134 28.0683 58.5571 26.6588 62.7943C23.3045 62.008 20.2238 61.0886 17.4737 60.0613C12.7694 58.3041 9.24086 56.308 6.96058 54.2941C4.67467 52.2753 4 50.5823 4 49.3128C4 48.0433 4.67467 46.3502 6.96058 44.3314C9.24086 42.3176 12.7694 40.3214 17.4737 38.5642C20.1443 37.5666 23.1267 36.6708 26.3687 35.8997ZM79.647 63.5376C76.4902 64.1587 73.13 64.6668 69.6073 65.0441C70.8227 63.1487 72.0152 61.1912 73.1778 59.1774C74.1483 57.4966 75.0743 55.8173 75.9552 54.1448C77.3798 57.3649 78.612 60.5104 79.647 63.5376ZM54.5 59.8128C60.8513 59.8128 66 54.8879 66 48.8128C66 42.7376 60.8513 37.8128 54.5 37.8128C48.1487 37.8128 43 42.7376 43 48.8128C43 54.8879 48.1487 59.8128 54.5 59.8128Z" fill="#61DAFB"/>
</svg>
